<svg xmlns="http://www.w3.org/2000/svg" width="1422" height="857" fill="none" viewBox="0 0 1422 857"><path fill="#000" fill-opacity=".1" stroke="#fff" stroke-width="20" d="M764.131 389.545V399.545H774.131C855.575 399.545 926 470.834 926 555.102C926 660.392 847.042 730.136 774.131 730.136H764.131V740.136V759.614C764.131 808.145 723.955 847 676.854 847H628.488V789.091H676.854C693.022 789.091 706.31 775.125 706.31 759.614V735.851V727.453L698.038 726.002C625.884 713.342 563.404 664.568 534.761 593.81L534.749 593.781L534.737 593.752C518.2 553.629 513.795 509.528 522.068 466.92C530.34 424.323 550.92 385.095 581.255 354.102C581.262 354.095 581.269 354.088 581.276 354.081L703.418 230.632L706.31 227.71V223.599V97.3864C706.31 58.0357 731.91 23.2234 769.334 13.1631L769.545 13.1065L769.753 13.0408C775.953 11.0807 784.227 10.0023 791.618 10C806.814 10.0756 821.72 14.182 834.817 21.9019C847.92 29.6258 858.745 40.6912 866.186 53.971L866.206 54.0055L866.225 54.0399C885.864 88.4461 880.48 132.544 852.704 160.004L852.674 160.034L852.644 160.064L767.04 246.154L764.131 249.079V253.205V389.545ZM783.949 69.4308L783.891 69.4467L783.833 69.4633C770.413 73.3017 764.131 85.0435 764.131 97.3864V145.3V170.753L781.457 152.107L812.452 118.75C817.032 114.161 819.972 108.186 820.814 101.753C821.661 95.289 820.343 88.7269 817.066 83.0936C810.406 71.1117 796.664 65.9592 783.949 69.4308ZM697.836 403.428L706.31 402.12V393.545V331.114V306.063L689.059 324.227L621.409 395.456C605.566 411.622 593.634 430.488 585.834 450.763C585.161 452.025 584.559 453.265 584.034 454.476C582.853 457.202 581.847 460.274 581.563 463.39C571.365 498.172 572.847 536.158 587.036 571.311L587.048 571.339L587.059 571.368C596.428 594.173 610.925 614.509 629.423 630.794C647.921 647.079 669.922 658.875 693.717 665.263L706.31 668.644V655.605V536.794V498.5V476.5V463.764L693.938 466.785L696.31 476.5C693.938 466.785 693.937 466.786 693.936 466.786L693.933 466.787L693.925 466.789L693.899 466.795L693.811 466.817C693.735 466.835 693.628 466.862 693.489 466.897C693.212 466.966 692.813 467.067 692.305 467.197C691.289 467.458 689.838 467.838 688.066 468.322C684.531 469.286 679.683 470.673 674.461 472.358C669.261 474.035 663.559 476.048 658.358 478.278C653.346 480.427 648.043 483.089 644.168 486.26C636.61 492.444 624.029 494.725 611.218 485.796C604.221 480.92 602.788 478.608 602.255 477.266C601.532 475.443 601.486 473.405 601.483 466.618C602.265 464.114 603.117 461.629 604.038 459.168C604.73 457.958 605.566 456.628 606.56 455.194C610.531 449.463 616.656 442.585 624.921 435.673C641.423 421.876 665.974 408.348 697.836 403.428ZM764.131 662.227V672.227H774.131C815.842 672.227 868.957 627.983 868.957 555.102C868.957 503.094 825.808 455.117 774.131 455.117H764.131V465.117V662.227Z"/><line x1="22" x2="1422" y1="128.5" y2="128.5" stroke="#000" stroke-opacity=".4"/><line x1="22" x2="1422" y1="278.5" y2="278.5" stroke="#000" stroke-opacity=".4"/><line x1="22" x2="1422" y1="428.5" y2="428.5" stroke="#000" stroke-opacity=".4"/><line x1="22" x2="1422" y1="578.5" y2="578.5" stroke="#000" stroke-opacity=".4"/><line x1="22" x2="1422" y1="728.5" y2="728.5" stroke="#000" stroke-opacity=".4"/><path fill="#000" fill-opacity=".1" d="M94.5934 644.994C94.5934 646.272 94.2151 647.521 93.5062 648.584C92.7973 649.647 91.7898 650.475 90.611 650.964C89.4322 651.453 88.1351 651.581 86.8837 651.332C85.6323 651.082 84.4828 650.467 83.5806 649.563C82.6783 648.66 82.0639 647.508 81.815 646.255C81.5661 645.001 81.6938 643.702 82.1821 642.521C82.6704 641.34 83.4972 640.331 84.5581 639.621C85.619 638.911 86.8663 638.532 88.1422 638.532C89.8532 638.532 91.4941 639.213 92.7039 640.425C93.9138 641.636 94.5934 643.28 94.5934 644.994ZM67.2296 678.327C66.8037 677.956 66.3074 677.675 65.7704 677.501C65.2334 677.326 64.6669 677.262 64.1046 677.313C63.5424 677.363 62.996 677.526 62.4984 677.793C62.0007 678.06 61.562 678.425 61.2085 678.866L39.7045 704.714C39.334 705.14 39.0534 705.637 38.8793 706.175C38.7053 706.713 38.6414 707.281 38.6916 707.844C38.7418 708.407 38.905 708.954 39.1715 709.453C39.4379 709.951 39.802 710.391 40.2421 710.745C40.668 711.116 41.1643 711.397 41.7013 711.571C42.2383 711.746 42.8048 711.81 43.3671 711.759C43.9293 711.709 44.4756 711.546 44.9733 711.279C45.4709 711.012 45.9097 710.647 46.2632 710.206L67.7672 684.358C68.1377 683.932 68.4183 683.435 68.5924 682.897C68.7664 682.359 68.8303 681.791 68.7801 681.228C68.7299 680.665 68.5667 680.118 68.3002 679.619C68.0338 679.121 67.6697 678.681 67.2296 678.327V678.327ZM129 651.456C129.006 652.172 128.832 652.878 128.494 653.509C128.156 654.139 127.664 654.674 127.064 655.064L116.097 662.387V672.996C116.069 687.84 110.169 702.069 99.6903 712.565C89.2112 723.062 75.0067 728.972 60.187 729H4.27666C3.46845 728.995 2.67787 728.763 1.99556 728.329C1.31324 727.895 0.766803 727.277 0.418884 726.547C0.0709657 725.816 -0.064352 725.002 0.0284435 724.197C0.121239 723.393 0.438392 722.631 0.943545 721.999L51.5854 658.564V649.302C51.5874 641.589 54.3439 634.131 59.3569 628.276C64.3698 622.421 71.3083 618.556 78.9183 617.379C86.5283 616.201 94.3077 617.79 100.85 621.857C107.393 625.924 112.267 632.202 114.592 639.555L127.064 647.848C127.664 648.238 128.156 648.773 128.494 649.403C128.832 650.034 129.006 650.74 129 651.456V651.456ZM116.958 651.456L108.517 645.802C107.637 645.228 107.004 644.344 106.743 643.325C105.302 637.738 101.874 632.87 97.1037 629.634C92.3334 626.399 86.5483 625.018 80.8341 625.752C75.1199 626.486 69.8694 629.283 66.0679 633.619C62.2664 637.955 60.1753 643.531 60.187 649.302V660.072C60.1937 661.056 59.8507 662.01 59.2194 662.764L13.2008 720.384H60.187C72.7297 720.37 84.7547 715.373 93.6237 706.489C102.493 697.605 107.482 685.56 107.496 672.996V660.072C107.489 659.356 107.663 658.65 108.002 658.019C108.34 657.389 108.832 656.854 109.431 656.464L116.958 651.456Z"/></svg>