<svg xmlns="http://www.w3.org/2000/svg" xmlns:xlink="http://www.w3.org/1999/xlink" id="visual" width="900" height="600" version="1.1" viewBox="0 0 900 600"><g stroke-linejoin="bevel" stroke-width="1"><path fill="#f2f6f8" stroke="#f2f6f8" d="M457.3 299.9L492.7 257.8L453.7 271.9Z"/><path fill="#fbfcfd" stroke="#fbfcfd" d="M457.3 299.9L506.7 308.1L492.7 257.8Z"/><path fill="#f8fafb" stroke="#f8fafb" d="M506.7 308.1L542.4 269.9L492.7 257.8Z"/><path fill="#fbfcfd" stroke="#fbfcfd" d="M554.1 227.8L482.1 217.6L492.7 257.8Z"/><path fill="#f2f6f8" stroke="#f2f6f8" d="M492.7 257.8L482.1 217.6L453.7 271.9Z"/><path fill="#f8fafb" stroke="#f8fafb" d="M542.4 269.9L547.1 252.9L492.7 257.8Z"/><path fill="#fdfdfe" stroke="#fdfdfe" d="M451.7 400.2L530.1 340.2L506.7 308.1Z"/><path fill="#f2f6f8" stroke="#f2f6f8" d="M506.7 308.1L560.1 315.1L542.4 269.9Z"/><path fill="#ecf1f4" stroke="#ecf1f4" d="M602.8 279.9L565.4 233.8L547.1 252.9Z"/><path fill="#eef3f5" stroke="#eef3f5" d="M408.9 217.8L407.9 254.9L453.7 271.9Z"/><path fill="#eaf0f3" stroke="#eaf0f3" d="M453.7 271.9L388.3 298.1L457.3 299.9Z"/><path fill="#f2f6f8" stroke="#f2f6f8" d="M530.1 340.2L560.1 315.1L506.7 308.1Z"/><path fill="#fbfcfd" stroke="#fbfcfd" d="M482.1 217.6L444.3 199.8L453.7 271.9Z"/><path fill="#ecf1f4" stroke="#ecf1f4" d="M565.4 233.8L554.1 227.8L547.1 252.9Z"/><path fill="#f8fafb" stroke="#f8fafb" d="M547.1 252.9L554.1 227.8L492.7 257.8Z"/><path fill="#eef3f5" stroke="#eef3f5" d="M482.1 217.6L479.7 168.5L444.3 199.8Z"/><path fill="#f0f4f7" stroke="#f0f4f7" d="M407.9 254.9L388.3 298.1L453.7 271.9Z"/><path fill="#f4f7f9" stroke="#f4f7f9" d="M457.3 299.9L451.7 400.2L506.7 308.1Z"/><path fill="#fbfcfd" stroke="#fbfcfd" d="M444.3 199.8L408.9 217.8L453.7 271.9Z"/><path fill="#f4f7f9" stroke="#f4f7f9" d="M407.9 254.9L370.6 257.8L388.3 298.1Z"/><path fill="#f2f6f8" stroke="#f2f6f8" d="M602.8 279.9L547.1 252.9L542.4 269.9Z"/><path fill="#fff" stroke="#fff" d="M530.1 340.2L561.4 339.1L560.1 315.1Z"/><path fill="#fbfcfd" stroke="#fbfcfd" d="M560.1 315.1L602.8 279.9L542.4 269.9Z"/><path fill="#f8fafb" stroke="#f8fafb" d="M388.3 298.1L417.3 371.2L457.3 299.9Z"/><path fill="#f2f6f8" stroke="#f2f6f8" d="M558.1 419.4L590.4 348.2L561.4 339.1Z"/><path fill="#f6f9fa" stroke="#f6f9fa" d="M408.9 217.8L370.6 257.8L407.9 254.9Z"/><path fill="#f0f4f7" stroke="#f0f4f7" d="M388.3 298.1L374.9 353.2L417.3 371.2Z"/><path fill="#fbfcfd" stroke="#fbfcfd" d="M509.1 153.5L482.1 217.6L554.1 227.8Z"/><path fill="#f6f9fa" stroke="#f6f9fa" d="M509.1 153.5L479.7 168.5L482.1 217.6Z"/><path fill="#fff" stroke="#fff" d="M444.3 199.8L437.3 160.6L408.9 217.8Z"/><path fill="#f2f6f8" stroke="#f2f6f8" d="M417.3 371.2L451.7 400.2L457.3 299.9Z"/><path fill="#f0f4f7" stroke="#f0f4f7" d="M479.7 168.5L453.7 164.6L444.3 199.8Z"/><path fill="#eef3f5" stroke="#eef3f5" d="M408.9 217.8L341.9 214.6L370.6 257.8Z"/><path fill="#fbfcfd" stroke="#fbfcfd" d="M590.4 348.2L602.8 279.9L560.1 315.1Z"/><path fill="#fff" stroke="#fff" d="M338.6 339.1L374.9 353.2L388.3 298.1Z"/><path fill="#f2f6f8" stroke="#f2f6f8" d="M417.3 371.2L396.3 395.4L451.7 400.2Z"/><path fill="#f8fafb" stroke="#f8fafb" d="M558.1 419.4L561.4 339.1L530.1 340.2Z"/><path fill="#ecf1f4" stroke="#ecf1f4" d="M561.4 339.1L590.4 348.2L560.1 315.1Z"/><path fill="#eaf0f3" stroke="#eaf0f3" d="M419.3 104.5L437.3 160.6L453.7 164.6Z"/><path fill="#fbfcfd" stroke="#fbfcfd" d="M453.7 164.6L437.3 160.6L444.3 199.8Z"/><path fill="#eaf0f3" stroke="#eaf0f3" d="M604.8 167.6L554.1 227.8L565.4 233.8Z"/><path fill="#fff" stroke="#fff" d="M602.4 161.6L509.1 153.5L554.1 227.8Z"/><path fill="#ecf1f4" stroke="#ecf1f4" d="M479.7 168.5L496.1 131.3L453.7 164.6Z"/><path fill="#fdfdfe" stroke="#fdfdfe" d="M321.6 270.9L343.9 285.1L370.6 257.8Z"/><path fill="#fff" stroke="#fff" d="M370.6 257.8L343.9 285.1L388.3 298.1Z"/><path fill="#eef3f5" stroke="#eef3f5" d="M657.2 276.9L615.8 265.8L602.8 279.9Z"/><path fill="#eaf0f3" stroke="#eaf0f3" d="M602.8 279.9L615.8 265.8L565.4 233.8Z"/><path fill="#fdfdfe" stroke="#fdfdfe" d="M374.9 353.2L396.3 395.4L417.3 371.2Z"/><path fill="#f2f6f8" stroke="#f2f6f8" d="M396.3 395.4L463.7 423.5L451.7 400.2Z"/><path fill="#ecf1f4" stroke="#ecf1f4" d="M451.7 400.2L480.7 436.4L530.1 340.2Z"/><path fill="#f6f9fa" stroke="#f6f9fa" d="M343.9 285.1L338.6 339.1L388.3 298.1Z"/><path fill="#eef3f5" stroke="#eef3f5" d="M374.9 353.2L337.6 362.2L396.3 395.4Z"/><path fill="#fbfcfd" stroke="#fbfcfd" d="M576.4 125.5L496.1 131.3L509.1 153.5Z"/><path fill="#fbfcfd" stroke="#fbfcfd" d="M509.1 153.5L496.1 131.3L479.7 168.5Z"/><path fill="#eaf0f3" stroke="#eaf0f3" d="M470.7 483.7L480.7 436.4L463.7 423.5Z"/><path fill="#eef3f5" stroke="#eef3f5" d="M463.7 423.5L480.7 436.4L451.7 400.2Z"/><path fill="#fff" stroke="#fff" d="M342.6 155.6L341.9 214.6L408.9 217.8Z"/><path fill="#fff" stroke="#fff" d="M343.9 285.1L289.2 324.1L338.6 339.1Z"/><path fill="#f6f9fa" stroke="#f6f9fa" d="M480.7 436.4L558.1 419.4L530.1 340.2Z"/><path fill="#fff" stroke="#fff" d="M321.2 224.6L321.6 270.9L370.6 257.8Z"/><path fill="#fdfdfe" stroke="#fdfdfe" d="M314.6 376.4L337.6 362.2L338.6 339.1Z"/><path fill="#f8fafb" stroke="#f8fafb" d="M338.6 339.1L337.6 362.2L374.9 353.2Z"/><path fill="#f0f4f7" stroke="#f0f4f7" d="M276.8 192.6L321.2 224.6L341.9 214.6Z"/><path fill="#fdfdfe" stroke="#fdfdfe" d="M341.9 214.6L321.2 224.6L370.6 257.8Z"/><path fill="#f8fafb" stroke="#f8fafb" d="M650.2 221.8L604.8 167.6L565.4 233.8Z"/><path fill="#fbfcfd" stroke="#fbfcfd" d="M635.8 381.2L632.8 357.1L590.4 348.2Z"/><path fill="#f8fafb" stroke="#f8fafb" d="M590.4 348.2L632.8 357.1L602.8 279.9Z"/><path fill="#fff" stroke="#fff" d="M615.8 265.8L650.2 221.8L565.4 233.8Z"/><path fill="#f0f4f7" stroke="#f0f4f7" d="M604.8 167.6L602.4 161.6L554.1 227.8Z"/><path fill="#fdfdfe" stroke="#fdfdfe" d="M419.3 104.5L397.9 125.5L437.3 160.6Z"/><path fill="#eaf0f3" stroke="#eaf0f3" d="M437.3 160.6L397.9 125.5L408.9 217.8Z"/><path fill="#f8fafb" stroke="#f8fafb" d="M632.8 357.1L657.2 276.9L602.8 279.9Z"/><path fill="#ecf1f4" stroke="#ecf1f4" d="M604.8 167.6L631.2 174.6L602.4 161.6Z"/><path fill="#eef3f5" stroke="#eef3f5" d="M657.2 276.9L650.2 221.8L615.8 265.8Z"/><path fill="#f0f4f7" stroke="#f0f4f7" d="M601.4 423.4L635.8 381.2L590.4 348.2Z"/><path fill="#f0f4f7" stroke="#f0f4f7" d="M632.8 357.1L683.2 348.1L657.2 276.9Z"/><path fill="#eef3f5" stroke="#eef3f5" d="M480.7 436.4L539.4 457.5L558.1 419.4Z"/><path fill="#eef3f5" stroke="#eef3f5" d="M558.1 419.4L601.4 423.4L590.4 348.2Z"/><path fill="#f2f6f8" stroke="#f2f6f8" d="M611.8 140.5L576.4 125.5L602.4 161.6Z"/><path fill="#fff" stroke="#fff" d="M602.4 161.6L576.4 125.5L509.1 153.5Z"/><path fill="#eaf0f3" stroke="#eaf0f3" d="M496.1 131.3L419.3 104.5L453.7 164.6Z"/><path fill="#fbfcfd" stroke="#fbfcfd" d="M578.8 452.4L601.4 423.4L558.1 419.4Z"/><path fill="#f8fafb" stroke="#f8fafb" d="M650.2 221.8L631.2 174.6L604.8 167.6Z"/><path fill="#f8fafb" stroke="#f8fafb" d="M397.9 125.5L342.6 155.6L408.9 217.8Z"/><path fill="#f4f7f9" stroke="#f4f7f9" d="M447.3 82.2L419.3 104.5L496.1 131.3Z"/><path fill="#f4f7f9" stroke="#f4f7f9" d="M397.9 125.5L321.2 115.5L342.6 155.6Z"/><path fill="#eaf0f3" stroke="#eaf0f3" d="M288.2 364.2L314.6 376.4L338.6 339.1Z"/><path fill="#f8fafb" stroke="#f8fafb" d="M337.6 362.2L375.9 443.4L396.3 395.4Z"/><path fill="#fff" stroke="#fff" d="M396.3 395.4L417.3 477.5L463.7 423.5Z"/><path fill="#f8fafb" stroke="#f8fafb" d="M289.2 324.1L343.9 285.1L321.6 270.9Z"/><path fill="#f4f7f9" stroke="#f4f7f9" d="M314.6 376.4L375.9 443.4L337.6 362.2Z"/><path fill="#ecf1f4" stroke="#ecf1f4" d="M480.7 436.4L518.1 489.5L539.4 457.5Z"/><path fill="#f6f9fa" stroke="#f6f9fa" d="M631.2 174.6L611.8 140.5L602.4 161.6Z"/><path fill="#f4f7f9" stroke="#f4f7f9" d="M259.2 248.9L321.6 270.9L321.2 224.6Z"/><path fill="#eaf0f3" stroke="#eaf0f3" d="M259.2 248.9L289.2 324.1L321.6 270.9Z"/><path fill="#ecf1f4" stroke="#ecf1f4" d="M539.4 457.5L578.8 452.4L558.1 419.4Z"/><path fill="#f8fafb" stroke="#f8fafb" d="M601.4 423.4L627.2 432.4L635.8 381.2Z"/><path fill="#fdfdfe" stroke="#fdfdfe" d="M417.3 477.5L470.7 483.7L463.7 423.5Z"/><path fill="#fdfdfe" stroke="#fdfdfe" d="M539.4 457.5L540.1 484.7L578.8 452.4Z"/><path fill="#f8fafb" stroke="#f8fafb" d="M444.7 67.3L447.3 82.2L495.7 53.2Z"/><path fill="#fdfdfe" stroke="#fdfdfe" d="M419.3 104.5L399.9 94.3L397.9 125.5Z"/><path fill="#f6f9fa" stroke="#f6f9fa" d="M375.9 443.4L417.3 477.5L396.3 395.4Z"/><path fill="#f4f7f9" stroke="#f4f7f9" d="M421.3 56.3L399.9 94.3L419.3 104.5Z"/><path fill="#eef3f5" stroke="#eef3f5" d="M289.2 324.1L288.2 364.2L338.6 339.1Z"/><path fill="#eaf0f3" stroke="#eaf0f3" d="M314.6 376.4L343.6 478.5L375.9 443.4Z"/><path fill="#eaf0f3" stroke="#eaf0f3" d="M578.8 452.4L627.2 432.4L601.4 423.4Z"/><path fill="#fbfcfd" stroke="#fbfcfd" d="M635.8 381.2L683.2 348.1L632.8 357.1Z"/><path fill="#f6f9fa" stroke="#f6f9fa" d="M521.1 514.8L518.1 489.5L470.7 483.7Z"/><path fill="#f4f7f9" stroke="#f4f7f9" d="M470.7 483.7L518.1 489.5L480.7 436.4Z"/><path fill="#ecf1f4" stroke="#ecf1f4" d="M640.8 512.7L644.8 433.5L627.2 432.4Z"/><path fill="#fdfdfe" stroke="#fdfdfe" d="M518.1 489.5L540.1 484.7L539.4 457.5Z"/><path fill="#fbfcfd" stroke="#fbfcfd" d="M712.5 388.4L683.2 348.1L635.8 381.2Z"/><path fill="#f0f4f7" stroke="#f0f4f7" d="M657.2 276.9L691.5 209.8L650.2 221.8Z"/><path fill="#fbfcfd" stroke="#fbfcfd" d="M611.8 140.5L581.4 94.3L576.4 125.5Z"/><path fill="#f2f6f8" stroke="#f2f6f8" d="M576.4 125.5L581.4 94.3L496.1 131.3Z"/><path fill="#f0f4f7" stroke="#f0f4f7" d="M495.7 53.2L447.3 82.2L496.1 131.3Z"/><path fill="#f0f4f7" stroke="#f0f4f7" d="M447.3 82.2L421.3 56.3L419.3 104.5Z"/><path fill="#fdfdfe" stroke="#fdfdfe" d="M343.6 478.5L391.9 485.5L375.9 443.4Z"/><path fill="#f2f6f8" stroke="#f2f6f8" d="M375.9 443.4L391.9 485.5L417.3 477.5Z"/><path fill="#eef3f5" stroke="#eef3f5" d="M417.3 477.5L433.3 515.8L470.7 483.7Z"/><path fill="#f2f6f8" stroke="#f2f6f8" d="M275.8 176.5L276.8 192.6L342.6 155.6Z"/><path fill="#fbfcfd" stroke="#fbfcfd" d="M342.6 155.6L276.8 192.6L341.9 214.6Z"/><path fill="#f6f9fa" stroke="#f6f9fa" d="M289.2 324.1L243.8 368.2L288.2 364.2Z"/><path fill="#eaf0f3" stroke="#eaf0f3" d="M254.2 219.8L259.2 248.9L321.2 224.6Z"/><path fill="#eaf0f3" stroke="#eaf0f3" d="M589.4 500.7L627.2 432.4L578.8 452.4Z"/><path fill="#f2f6f8" stroke="#f2f6f8" d="M627.2 432.4L644.8 433.5L635.8 381.2Z"/><path fill="#fbfcfd" stroke="#fbfcfd" d="M722.5 237.9L691.5 209.8L657.2 276.9Z"/><path fill="#f8fafb" stroke="#f8fafb" d="M650.2 221.8L689.2 169.5L631.2 174.6Z"/><path fill="#f6f9fa" stroke="#f6f9fa" d="M631.2 174.6L689.5 128.3L611.8 140.5Z"/><path fill="#eaf0f3" stroke="#eaf0f3" d="M611.8 140.5L601.4 67.2L581.4 94.3Z"/><path fill="#f0f4f7" stroke="#f0f4f7" d="M421.3 56.3L371.6 83.2L399.9 94.3Z"/><path fill="#f4f7f9" stroke="#f4f7f9" d="M399.9 94.3L371.6 83.2L397.9 125.5Z"/><path fill="#f4f7f9" stroke="#f4f7f9" d="M727.5 363.1L701.2 333.2L683.2 348.1Z"/><path fill="#fbfcfd" stroke="#fbfcfd" d="M683.2 348.1L701.2 333.2L657.2 276.9Z"/><path fill="#fdfdfe" stroke="#fdfdfe" d="M307.6 121.5L275.8 176.5L342.6 155.6Z"/><path fill="#eaf0f3" stroke="#eaf0f3" d="M276.8 192.6L254.2 219.8L321.2 224.6Z"/><path fill="#eaf0f3" stroke="#eaf0f3" d="M534.1 50.2L495.7 53.2L496.1 131.3Z"/><path fill="#fdfdfe" stroke="#fdfdfe" d="M444.7 67.3L421.3 56.3L447.3 82.2Z"/><path fill="#f6f9fa" stroke="#f6f9fa" d="M371.6 83.2L321.2 115.5L397.9 125.5Z"/><path fill="#f6f9fa" stroke="#f6f9fa" d="M440.7 0L421.3 56.3L444.7 67.3Z"/><path fill="#f6f9fa" stroke="#f6f9fa" d="M275.8 176.5L254.2 219.8L276.8 192.6Z"/><path fill="#f4f7f9" stroke="#f4f7f9" d="M455.3 537.7L521.1 514.8L470.7 483.7Z"/><path fill="#f8fafb" stroke="#f8fafb" d="M518.1 489.5L521.1 514.8L540.1 484.7Z"/><path fill="#f6f9fa" stroke="#f6f9fa" d="M540.1 484.7L589.4 500.7L578.8 452.4Z"/><path fill="#fbfcfd" stroke="#fbfcfd" d="M307.6 95.3L307.6 121.5L321.2 115.5Z"/><path fill="#f0f4f7" stroke="#f0f4f7" d="M321.2 115.5L307.6 121.5L342.6 155.6Z"/><path fill="#fdfdfe" stroke="#fdfdfe" d="M391.9 485.5L433.3 515.8L417.3 477.5Z"/><path fill="#fbfcfd" stroke="#fbfcfd" d="M716.5 153.5L689.2 169.5L691.5 209.8Z"/><path fill="#f0f4f7" stroke="#f0f4f7" d="M691.5 209.8L689.2 169.5L650.2 221.8Z"/><path fill="#f6f9fa" stroke="#f6f9fa" d="M271.2 452.4L343.6 478.5L314.6 376.4Z"/><path fill="#f4f7f9" stroke="#f4f7f9" d="M391.9 485.5L360.9 541.7L433.3 515.8Z"/><path fill="#ecf1f4" stroke="#ecf1f4" d="M601.4 67.2L534.1 50.2L581.4 94.3Z"/><path fill="#f6f9fa" stroke="#f6f9fa" d="M581.4 94.3L534.1 50.2L496.1 131.3Z"/><path fill="#fdfdfe" stroke="#fdfdfe" d="M396.3 0L338.9 43.2L421.3 56.3Z"/><path fill="#eaf0f3" stroke="#eaf0f3" d="M716.5 153.5L688.5 159.6L689.2 169.5Z"/><path fill="#ecf1f4" stroke="#ecf1f4" d="M689.2 169.5L688.5 159.6L631.2 174.6Z"/><path fill="#f8fafb" stroke="#f8fafb" d="M214.8 289.9L236.8 287.1L259.2 248.9Z"/><path fill="#f2f6f8" stroke="#f2f6f8" d="M259.2 248.9L236.8 287.1L289.2 324.1Z"/><path fill="#eaf0f3" stroke="#eaf0f3" d="M256.2 434.5L271.2 452.4L314.6 376.4Z"/><path fill="#f8fafb" stroke="#f8fafb" d="M574.4 519.8L589.4 500.7L540.1 484.7Z"/><path fill="#f8fafb" stroke="#f8fafb" d="M701.2 333.2L722.5 237.9L657.2 276.9Z"/><path fill="#f0f4f7" stroke="#f0f4f7" d="M662.2 79.2L601.4 67.2L611.8 140.5Z"/><path fill="#ecf1f4" stroke="#ecf1f4" d="M223.5 336.1L243.8 368.2L289.2 324.1Z"/><path fill="#f2f6f8" stroke="#f2f6f8" d="M338.9 43.2L307.6 95.3L371.6 83.2Z"/><path fill="#f4f7f9" stroke="#f4f7f9" d="M371.6 83.2L307.6 95.3L321.2 115.5Z"/><path fill="#fdfdfe" stroke="#fdfdfe" d="M227.8 72.3L197.5 168.5L275.8 176.5Z"/><path fill="#fbfcfd" stroke="#fbfcfd" d="M197.5 168.5L197.8 212.8L254.2 219.8Z"/><path fill="#eef3f5" stroke="#eef3f5" d="M521.1 514.8L574.4 519.8L540.1 484.7Z"/><path fill="#f0f4f7" stroke="#f0f4f7" d="M725.9 386.4L712.5 388.4L684.2 464.5Z"/><path fill="#f4f7f9" stroke="#f4f7f9" d="M557.1 600L574.4 519.8L521.1 514.8Z"/><path fill="#f2f6f8" stroke="#f2f6f8" d="M644.8 433.5L712.5 388.4L635.8 381.2Z"/><path fill="#fff" stroke="#fff" d="M701.2 333.2L756.9 314.1L722.5 237.9Z"/><path fill="#f0f4f7" stroke="#f0f4f7" d="M712.5 388.4L644.8 433.5L684.2 464.5Z"/><path fill="#eef3f5" stroke="#eef3f5" d="M443.7 578.8L455.3 537.7L433.3 515.8Z"/><path fill="#fff" stroke="#fff" d="M433.3 515.8L455.3 537.7L470.7 483.7Z"/><path fill="#eaf0f3" stroke="#eaf0f3" d="M779.3 198.6L729.9 222.6L791.3 238.8Z"/><path fill="#f2f6f8" stroke="#f2f6f8" d="M722.5 237.9L729.9 222.6L691.5 209.8Z"/><path fill="#ecf1f4" stroke="#ecf1f4" d="M712.5 388.4L727.5 363.1L683.2 348.1Z"/><path fill="#fbfcfd" stroke="#fbfcfd" d="M716.5 153.5L689.5 128.3L688.5 159.6Z"/><path fill="#eaf0f3" stroke="#eaf0f3" d="M688.5 159.6L689.5 128.3L631.2 174.6Z"/><path fill="#f6f9fa" stroke="#f6f9fa" d="M214.8 289.9L223.5 336.1L236.8 287.1Z"/><path fill="#fdfdfe" stroke="#fdfdfe" d="M236.8 287.1L223.5 336.1L289.2 324.1Z"/><path fill="#eaf0f3" stroke="#eaf0f3" d="M197.8 212.8L214.8 289.9L259.2 248.9Z"/><path fill="#eef3f5" stroke="#eef3f5" d="M197.8 212.8L259.2 248.9L254.2 219.8Z"/><path fill="#eef3f5" stroke="#eef3f5" d="M195.8 408.4L223.5 355.2L120.1 351.2Z"/><path fill="#f4f7f9" stroke="#f4f7f9" d="M223.5 336.1L223.5 355.2L243.8 368.2Z"/><path fill="#fbfcfd" stroke="#fbfcfd" d="M256.2 434.5L314.6 376.4L288.2 364.2Z"/><path fill="#f8fafb" stroke="#f8fafb" d="M684.2 464.5L644.8 433.5L640.8 512.7Z"/><path fill="#fdfdfe" stroke="#fdfdfe" d="M712.5 388.4L725.9 386.4L727.5 363.1Z"/><path fill="#f4f7f9" stroke="#f4f7f9" d="M256.2 434.5L288.2 364.2L243.8 368.2Z"/><path fill="#f8fafb" stroke="#f8fafb" d="M343.6 478.5L342.9 514.8L391.9 485.5Z"/><path fill="#eef3f5" stroke="#eef3f5" d="M295.2 514.7L342.9 514.8L343.6 478.5Z"/><path fill="#ecf1f4" stroke="#ecf1f4" d="M729.9 222.6L716.5 153.5L691.5 209.8Z"/><path fill="#fbfcfd" stroke="#fbfcfd" d="M195.8 408.4L256.2 434.5L243.8 368.2Z"/><path fill="#f4f7f9" stroke="#f4f7f9" d="M695.2 86.3L662.2 79.2L689.5 128.3Z"/><path fill="#eaf0f3" stroke="#eaf0f3" d="M689.5 128.3L662.2 79.2L611.8 140.5Z"/><path fill="#fdfdfe" stroke="#fdfdfe" d="M535.4 0L518.1 0L534.1 50.2Z"/><path fill="#f4f7f9" stroke="#f4f7f9" d="M640.8 512.7L627.2 432.4L589.4 500.7Z"/><path fill="#fbfcfd" stroke="#fbfcfd" d="M791.3 361.2L749.5 349.2L725.9 386.4Z"/><path fill="#f2f6f8" stroke="#f2f6f8" d="M725.9 386.4L749.5 349.2L727.5 363.1Z"/><path fill="#f2f6f8" stroke="#f2f6f8" d="M727.5 363.1L749.5 349.2L701.2 333.2Z"/><path fill="#fff" stroke="#fff" d="M421.3 56.3L338.9 43.2L371.6 83.2Z"/><path fill="#f4f7f9" stroke="#f4f7f9" d="M440.7 0L444.7 67.3L495.7 53.2Z"/><path fill="#f2f6f8" stroke="#f2f6f8" d="M662.2 79.2L640.8 55.3L601.4 67.2Z"/><path fill="#f4f7f9" stroke="#f4f7f9" d="M753.9 339.2L756.9 314.1L701.2 333.2Z"/><path fill="#fff" stroke="#fff" d="M729.9 222.6L756.9 193.8L716.5 153.5Z"/><path fill="#eef3f5" stroke="#eef3f5" d="M749.5 349.2L753.9 339.2L701.2 333.2Z"/><path fill="#eef3f5" stroke="#eef3f5" d="M574.4 519.8L640.8 512.7L589.4 500.7Z"/><path fill="#fbfcfd" stroke="#fbfcfd" d="M605.8 600L640.8 512.7L574.4 519.8Z"/><path fill="#f6f9fa" stroke="#f6f9fa" d="M301.6 531.7L360.9 541.7L342.9 514.8Z"/><path fill="#eef3f5" stroke="#eef3f5" d="M342.9 514.8L360.9 541.7L391.9 485.5Z"/><path fill="#eef3f5" stroke="#eef3f5" d="M535.4 0L534.1 50.2L616.8 24.2Z"/><path fill="#f2f6f8" stroke="#f2f6f8" d="M534.1 50.2L518.1 0L495.7 53.2Z"/><path fill="#f8fafb" stroke="#f8fafb" d="M518.1 0L440.7 0L495.7 53.2Z"/><path fill="#eaf0f3" stroke="#eaf0f3" d="M256.2 434.5L247.8 449.5L271.2 452.4Z"/><path fill="#eef3f5" stroke="#eef3f5" d="M271.2 452.4L295.2 514.7L343.6 478.5Z"/><path fill="#f0f4f7" stroke="#f0f4f7" d="M195.8 408.4L247.8 449.5L256.2 434.5Z"/><path fill="#ecf1f4" stroke="#ecf1f4" d="M616.8 24.2L534.1 50.2L601.4 67.2Z"/><path fill="#f2f6f8" stroke="#f2f6f8" d="M275.8 176.5L307.6 121.5L227.8 72.3Z"/><path fill="#f4f7f9" stroke="#f4f7f9" d="M197.5 168.5L254.2 219.8L275.8 176.5Z"/><path fill="#ecf1f4" stroke="#ecf1f4" d="M214.8 289.9L162.5 300.9L223.5 336.1Z"/><path fill="#fdfdfe" stroke="#fdfdfe" d="M779.3 198.6L756.9 193.8L729.9 222.6Z"/><path fill="#f4f7f9" stroke="#f4f7f9" d="M754.9 128.3L695.2 86.3L689.5 128.3Z"/><path fill="#f0f4f7" stroke="#f0f4f7" d="M662.2 79.2L674.5 8.2L640.8 55.3Z"/><path fill="#fff" stroke="#fff" d="M754.9 128.3L689.5 128.3L716.5 153.5Z"/><path fill="#eaf0f3" stroke="#eaf0f3" d="M616.8 0L616.8 24.2L674.5 8.2Z"/><path fill="#eef3f5" stroke="#eef3f5" d="M640.8 55.3L616.8 24.2L601.4 67.2Z"/><path fill="#f8fafb" stroke="#f8fafb" d="M440.7 0L402.9 0L421.3 56.3Z"/><path fill="#fff" stroke="#fff" d="M350.6 0L311.2 42.2L338.9 43.2Z"/><path fill="#eaf0f3" stroke="#eaf0f3" d="M338.9 43.2L311.2 42.2L307.6 95.3Z"/><path fill="#f2f6f8" stroke="#f2f6f8" d="M402.9 0L396.3 0L421.3 56.3Z"/><path fill="#fff" stroke="#fff" d="M220.5 497.5L295.2 514.7L271.2 452.4Z"/><path fill="#fdfdfe" stroke="#fdfdfe" d="M640.8 512.7L693.5 488.5L684.2 464.5Z"/><path fill="#eaf0f3" stroke="#eaf0f3" d="M684.2 464.5L793.9 426.5L725.9 386.4Z"/><path fill="#f0f4f7" stroke="#f0f4f7" d="M791.3 361.2L783.9 312.9L753.9 339.2Z"/><path fill="#f0f4f7" stroke="#f0f4f7" d="M360.9 541.7L443.7 578.8L433.3 515.8Z"/><path fill="#fff" stroke="#fff" d="M455.3 537.7L507.7 600L521.1 514.8Z"/><path fill="#eef3f5" stroke="#eef3f5" d="M419.3 600L443.7 578.8L360.9 541.7Z"/><path fill="#eef3f5" stroke="#eef3f5" d="M726.5 547.7L701.2 490.7L693.5 488.5Z"/><path fill="#ecf1f4" stroke="#ecf1f4" d="M693.5 488.5L701.2 490.7L684.2 464.5Z"/><path fill="#f8fafb" stroke="#f8fafb" d="M253.2 66.3L307.6 121.5L307.6 95.3Z"/><path fill="#fdfdfe" stroke="#fdfdfe" d="M753.9 339.2L783.9 312.9L756.9 314.1Z"/><path fill="#f8fafb" stroke="#f8fafb" d="M756.9 314.1L791.3 266.9L722.5 237.9Z"/><path fill="#eef3f5" stroke="#eef3f5" d="M791.3 361.2L753.9 339.2L749.5 349.2Z"/><path fill="#fdfdfe" stroke="#fdfdfe" d="M293.6 527.8L301.6 531.7L295.2 514.7Z"/><path fill="#f4f7f9" stroke="#f4f7f9" d="M295.2 514.7L301.6 531.7L342.9 514.8Z"/><path fill="#f8fafb" stroke="#f8fafb" d="M257.8 541.7L293.6 527.8L295.2 514.7Z"/><path fill="#f6f9fa" stroke="#f6f9fa" d="M125.7 203.6L172.5 242.8L197.8 212.8Z"/><path fill="#eaf0f3" stroke="#eaf0f3" d="M197.8 212.8L172.5 242.8L214.8 289.9Z"/><path fill="#eef3f5" stroke="#eef3f5" d="M223.5 355.2L195.8 408.4L243.8 368.2Z"/><path fill="#f2f6f8" stroke="#f2f6f8" d="M162.5 300.9L223.5 355.2L223.5 336.1Z"/><path fill="#f8fafb" stroke="#f8fafb" d="M257.8 541.7L288.2 549.8L293.6 527.8Z"/><path fill="#fff" stroke="#fff" d="M396.3 0L350.6 0L338.9 43.2Z"/><path fill="#eaf0f3" stroke="#eaf0f3" d="M791.3 238.8L729.9 222.6L722.5 237.9Z"/><path fill="#f6f9fa" stroke="#f6f9fa" d="M756.9 193.8L754.9 128.3L716.5 153.5Z"/><path fill="#eef3f5" stroke="#eef3f5" d="M783.9 312.9L791.3 266.9L756.9 314.1Z"/><path fill="#f8fafb" stroke="#f8fafb" d="M260.2 0L253.2 66.3L311.2 42.2Z"/><path fill="#fff" stroke="#fff" d="M311.2 42.2L253.2 66.3L307.6 95.3Z"/><path fill="#ecf1f4" stroke="#ecf1f4" d="M674.5 8.2L616.8 24.2L640.8 55.3Z"/><path fill="#eef3f5" stroke="#eef3f5" d="M616.8 24.2L616.8 0L535.4 0Z"/><path fill="#ecf1f4" stroke="#ecf1f4" d="M791.3 266.9L791.3 238.8L722.5 237.9Z"/><path fill="#fff" stroke="#fff" d="M779.3 198.6L754.9 128.3L756.9 193.8Z"/><path fill="#f2f6f8" stroke="#f2f6f8" d="M695.2 86.3L674.5 8.2L662.2 79.2Z"/><path fill="#eef3f5" stroke="#eef3f5" d="M172.5 242.8L162.5 300.9L214.8 289.9Z"/><path fill="#fbfcfd" stroke="#fbfcfd" d="M443.7 578.8L507.7 600L455.3 537.7Z"/><path fill="#eaf0f3" stroke="#eaf0f3" d="M640.8 512.7L664.2 574.8L693.5 488.5Z"/><path fill="#f4f7f9" stroke="#f4f7f9" d="M507.7 600L527.4 600L521.1 514.8Z"/><path fill="#fdfdfe" stroke="#fdfdfe" d="M793.9 426.5L791.3 361.2L725.9 386.4Z"/><path fill="#f6f9fa" stroke="#f6f9fa" d="M783.9 312.9L815.6 306.1L791.3 266.9Z"/><path fill="#fff" stroke="#fff" d="M152.1 106.3L178.5 167.6L197.5 168.5Z"/><path fill="#fff" stroke="#fff" d="M197.5 168.5L178.5 167.6L197.8 212.8Z"/><path fill="#ecf1f4" stroke="#ecf1f4" d="M172.5 242.8L130.7 254.8L162.5 300.9Z"/><path fill="#fbfcfd" stroke="#fbfcfd" d="M381.9 600L419.3 600L360.9 541.7Z"/><path fill="#f6f9fa" stroke="#f6f9fa" d="M443.7 578.8L419.3 600L507.7 600Z"/><path fill="#ecf1f4" stroke="#ecf1f4" d="M288.2 549.8L360.9 541.7L301.6 531.7Z"/><path fill="#f0f4f7" stroke="#f0f4f7" d="M779.3 198.6L760.9 123.5L754.9 128.3Z"/><path fill="#f6f9fa" stroke="#f6f9fa" d="M754.9 128.3L760.9 123.5L695.2 86.3Z"/><path fill="#f0f4f7" stroke="#f0f4f7" d="M779.3 66.2L760.9 123.5L814.3 122.3Z"/><path fill="#f6f9fa" stroke="#f6f9fa" d="M527.4 600L557.1 600L521.1 514.8Z"/><path fill="#fff" stroke="#fff" d="M253.2 66.3L227.8 72.3L307.6 121.5Z"/><path fill="#eef3f5" stroke="#eef3f5" d="M200.8 74.2L227.8 72.3L213.5 42.2Z"/><path fill="#f2f6f8" stroke="#f2f6f8" d="M220.5 497.5L271.2 452.4L247.8 449.5Z"/><path fill="#fbfcfd" stroke="#fbfcfd" d="M293.6 527.8L288.2 549.8L301.6 531.7Z"/><path fill="#f6f9fa" stroke="#f6f9fa" d="M356.6 600L381.9 600L360.9 541.7Z"/><path fill="#f2f6f8" stroke="#f2f6f8" d="M182.1 443.4L247.8 449.5L195.8 408.4Z"/><path fill="#f6f9fa" stroke="#f6f9fa" d="M182.1 443.4L220.5 497.5L247.8 449.5Z"/><path fill="#f2f6f8" stroke="#f2f6f8" d="M684.5 0L674.5 8.2L687.2 0Z"/><path fill="#f4f7f9" stroke="#f4f7f9" d="M818.3 343.1L815.6 306.1L783.9 312.9Z"/><path fill="#f0f4f7" stroke="#f0f4f7" d="M791.3 266.9L835.6 260.8L791.3 238.8Z"/><path fill="#eaf0f3" stroke="#eaf0f3" d="M845.6 150.6L834.3 146.5L779.3 198.6Z"/><path fill="#f4f7f9" stroke="#f4f7f9" d="M163.5 440.4L182.1 443.4L195.8 408.4Z"/><path fill="#f6f9fa" stroke="#f6f9fa" d="M288.2 549.8L356.6 600L360.9 541.7Z"/><path fill="#eef3f5" stroke="#eef3f5" d="M220.5 497.5L257.8 541.7L295.2 514.7Z"/><path fill="#fbfcfd" stroke="#fbfcfd" d="M288.2 549.8L287.2 600L356.6 600Z"/><path fill="#f0f4f7" stroke="#f0f4f7" d="M557.1 600L605.8 600L574.4 519.8Z"/><path fill="#fdfdfe" stroke="#fdfdfe" d="M836.3 377.4L818.3 343.1L791.3 361.2Z"/><path fill="#eaf0f3" stroke="#eaf0f3" d="M791.3 361.2L818.3 343.1L783.9 312.9Z"/><path fill="#eef3f5" stroke="#eef3f5" d="M605.8 600L653.8 580.8L640.8 512.7Z"/><path fill="#eef3f5" stroke="#eef3f5" d="M701.2 490.7L793.9 426.5L684.2 464.5Z"/><path fill="#fbfcfd" stroke="#fbfcfd" d="M653.8 580.8L664.2 574.8L640.8 512.7Z"/><path fill="#fbfcfd" stroke="#fbfcfd" d="M796.3 428.5L793.9 426.5L701.2 490.7Z"/><path fill="#f6f9fa" stroke="#f6f9fa" d="M213.5 42.2L227.8 72.3L253.2 66.3Z"/><path fill="#f2f6f8" stroke="#f2f6f8" d="M227.8 72.3L200.8 74.2L197.5 168.5Z"/><path fill="#f0f4f7" stroke="#f0f4f7" d="M818.3 508.7L796.3 428.5L701.2 490.7Z"/><path fill="#f6f9fa" stroke="#f6f9fa" d="M793.9 426.5L836.3 377.4L791.3 361.2Z"/><path fill="#f2f6f8" stroke="#f2f6f8" d="M687.2 0L674.5 8.2L695.2 86.3Z"/><path fill="#fff" stroke="#fff" d="M674.5 8.2L684.5 0L616.8 0Z"/><path fill="#f4f7f9" stroke="#f4f7f9" d="M128.1 246.9L172.5 242.8L125.7 203.6Z"/><path fill="#f8fafb" stroke="#f8fafb" d="M128.1 246.9L130.7 254.8L172.5 242.8Z"/><path fill="#fff" stroke="#fff" d="M115.1 429.5L163.5 440.4L195.8 408.4Z"/><path fill="#f0f4f7" stroke="#f0f4f7" d="M724.9 0L687.2 0L695.2 86.3Z"/><path fill="#eef3f5" stroke="#eef3f5" d="M220.5 497.5L222.5 523.8L257.8 541.7Z"/><path fill="#f0f4f7" stroke="#f0f4f7" d="M257.8 541.7L287.2 600L288.2 549.8Z"/><path fill="#ecf1f4" stroke="#ecf1f4" d="M177.1 499.7L222.5 523.8L220.5 497.5Z"/><path fill="#f6f9fa" stroke="#f6f9fa" d="M120.1 351.2L223.5 355.2L162.5 300.9Z"/><path fill="#f6f9fa" stroke="#f6f9fa" d="M182.1 443.4L177.1 499.7L220.5 497.5Z"/><path fill="#f2f6f8" stroke="#f2f6f8" d="M125.7 203.6L197.8 212.8L178.5 167.6Z"/><path fill="#f6f9fa" stroke="#f6f9fa" d="M107.1 305.1L121.7 328.2L162.5 300.9Z"/><path fill="#f2f6f8" stroke="#f2f6f8" d="M152.1 106.3L145.1 162.6L178.5 167.6Z"/><path fill="#f8fafb" stroke="#f8fafb" d="M889.6 255.9L835.6 260.8L900 313.9Z"/><path fill="#fff" stroke="#fff" d="M815.6 306.1L835.6 260.8L791.3 266.9Z"/><path fill="#eef3f5" stroke="#eef3f5" d="M221.8 557.8L229.5 537.7L222.5 523.8Z"/><path fill="#fbfcfd" stroke="#fbfcfd" d="M222.5 523.8L229.5 537.7L257.8 541.7Z"/><path fill="#fbfcfd" stroke="#fbfcfd" d="M653.8 580.8L677.5 600L664.2 574.8Z"/><path fill="#eef3f5" stroke="#eef3f5" d="M664.2 574.8L726.5 547.7L693.5 488.5Z"/><path fill="#f0f4f7" stroke="#f0f4f7" d="M605.8 600L644.2 600L653.8 580.8Z"/><path fill="#ecf1f4" stroke="#ecf1f4" d="M350.6 0L260.2 0L311.2 42.2Z"/><path fill="#f6f9fa" stroke="#f6f9fa" d="M252.8 0L213.5 42.2L253.2 66.3Z"/><path fill="#ecf1f4" stroke="#ecf1f4" d="M200.8 74.2L152.1 106.3L197.5 168.5Z"/><path fill="#fdfdfe" stroke="#fdfdfe" d="M115.7 268.9L162.5 300.9L130.7 254.8Z"/><path fill="#f6f9fa" stroke="#f6f9fa" d="M720.9 600L726.5 547.7L664.2 574.8Z"/><path fill="#fdfdfe" stroke="#fdfdfe" d="M260.2 0L252.8 0L253.2 66.3Z"/><path fill="#fff" stroke="#fff" d="M145.1 162.6L125.7 203.6L178.5 167.6Z"/><path fill="#eef3f5" stroke="#eef3f5" d="M128.1 246.9L115.7 268.9L130.7 254.8Z"/><path fill="#ecf1f4" stroke="#ecf1f4" d="M113.1 229.8L115.7 268.9L128.1 246.9Z"/><path fill="#fbfcfd" stroke="#fbfcfd" d="M77.4 331.1L120.1 351.2L121.7 328.2Z"/><path fill="#f6f9fa" stroke="#f6f9fa" d="M121.7 328.2L120.1 351.2L162.5 300.9Z"/><path fill="#f0f4f7" stroke="#f0f4f7" d="M796.3 428.5L836.3 377.4L793.9 426.5Z"/><path fill="#f0f4f7" stroke="#f0f4f7" d="M818.3 343.1L900 313.9L815.6 306.1Z"/><path fill="#fbfcfd" stroke="#fbfcfd" d="M828.6 435.5L836.3 377.4L796.3 428.5Z"/><path fill="#eaf0f3" stroke="#eaf0f3" d="M814.3 122.3L760.9 123.5L779.3 198.6Z"/><path fill="#fdfdfe" stroke="#fdfdfe" d="M760.9 123.5L779.3 66.2L695.2 86.3Z"/><path fill="#fdfdfe" stroke="#fdfdfe" d="M125.7 203.6L113.1 229.8L128.1 246.9Z"/><path fill="#eaf0f3" stroke="#eaf0f3" d="M115.7 268.9L107.1 305.1L162.5 300.9Z"/><path fill="#eef3f5" stroke="#eef3f5" d="M73.4 259.9L113.1 229.8L61.4 207.6Z"/><path fill="#eaf0f3" stroke="#eaf0f3" d="M221.8 600L287.2 600L257.8 541.7Z"/><path fill="#fff" stroke="#fff" d="M834.3 146.5L814.3 122.3L779.3 198.6Z"/><path fill="#f0f4f7" stroke="#f0f4f7" d="M168.5 66.3L152.1 106.3L200.8 74.2Z"/><path fill="#ecf1f4" stroke="#ecf1f4" d="M145.1 162.6L59.7 151.5L125.7 203.6Z"/><path fill="#eef3f5" stroke="#eef3f5" d="M168.5 66.3L200.8 74.2L213.5 42.2Z"/><path fill="#f4f7f9" stroke="#f4f7f9" d="M101.7 504.7L177.1 499.7L163.5 440.4Z"/><path fill="#fdfdfe" stroke="#fdfdfe" d="M163.5 440.4L177.1 499.7L182.1 443.4Z"/><path fill="#eaf0f3" stroke="#eaf0f3" d="M229.5 537.7L221.8 557.8L257.8 541.7Z"/><path fill="#eaf0f3" stroke="#eaf0f3" d="M93.7 304.1L107.1 305.1L115.7 268.9Z"/><path fill="#f6f9fa" stroke="#f6f9fa" d="M644.2 600L677.5 600L653.8 580.8Z"/><path fill="#ecf1f4" stroke="#ecf1f4" d="M779.3 66.2L724.9 0L695.2 86.3Z"/><path fill="#eef3f5" stroke="#eef3f5" d="M738.5 574.8L736.9 556.8L726.5 547.7Z"/><path fill="#f6f9fa" stroke="#f6f9fa" d="M726.5 547.7L757.9 543.7L701.2 490.7Z"/><path fill="#f2f6f8" stroke="#f2f6f8" d="M177.1 499.7L221.8 557.8L222.5 523.8Z"/><path fill="#eaf0f3" stroke="#eaf0f3" d="M161.1 34.2L168.5 66.3L213.5 42.2Z"/><path fill="#eef3f5" stroke="#eef3f5" d="M845.6 150.6L779.3 198.6L791.3 238.8Z"/><path fill="#f8fafb" stroke="#f8fafb" d="M838.6 35.2L788.9 30.2L779.3 66.2Z"/><path fill="#ecf1f4" stroke="#ecf1f4" d="M128.7 93.3L132.1 127.5L152.1 106.3Z"/><path fill="#fdfdfe" stroke="#fdfdfe" d="M152.1 106.3L132.1 127.5L145.1 162.6Z"/><path fill="#f6f9fa" stroke="#f6f9fa" d="M818.3 508.7L828.6 435.5L796.3 428.5Z"/><path fill="#eef3f5" stroke="#eef3f5" d="M738.5 574.8L757.9 543.7L736.9 556.8Z"/><path fill="#eaf0f3" stroke="#eaf0f3" d="M736.9 556.8L757.9 543.7L726.5 547.7Z"/><path fill="#fbfcfd" stroke="#fbfcfd" d="M873.6 394.2L854.6 375.4L836.3 377.4Z"/><path fill="#f2f6f8" stroke="#f2f6f8" d="M836.3 377.4L854.6 375.4L818.3 343.1Z"/><path fill="#fbfcfd" stroke="#fbfcfd" d="M835.6 260.8L845.6 150.6L791.3 238.8Z"/><path fill="#eef3f5" stroke="#eef3f5" d="M73.4 259.9L93.7 304.1L115.7 268.9Z"/><path fill="#fdfdfe" stroke="#fdfdfe" d="M107.1 305.1L77.4 331.1L121.7 328.2Z"/><path fill="#f4f7f9" stroke="#f4f7f9" d="M120.1 351.2L115.1 429.5L195.8 408.4Z"/><path fill="#fbfcfd" stroke="#fbfcfd" d="M77.4 331.1L93.7 304.1L73.4 259.9Z"/><path fill="#eef3f5" stroke="#eef3f5" d="M252.8 0L215.5 0L213.5 42.2Z"/><path fill="#fbfcfd" stroke="#fbfcfd" d="M900 209.8L845.6 150.6L835.6 260.8Z"/><path fill="#ecf1f4" stroke="#ecf1f4" d="M834.3 146.5L847.6 140.5L814.3 122.3Z"/><path fill="#eef3f5" stroke="#eef3f5" d="M720.9 600L738.5 574.8L726.5 547.7Z"/><path fill="#f4f7f9" stroke="#f4f7f9" d="M757.9 543.7L818.3 508.7L701.2 490.7Z"/><path fill="#f8fafb" stroke="#f8fafb" d="M77.7 377.4L115.1 429.5L120.1 351.2Z"/><path fill="#eef3f5" stroke="#eef3f5" d="M191.5 600L221.8 600L221.8 557.8Z"/><path fill="#f6f9fa" stroke="#f6f9fa" d="M900 162.6L847.6 140.5L845.6 150.6Z"/><path fill="#eef3f5" stroke="#eef3f5" d="M845.6 150.6L847.6 140.5L834.3 146.5Z"/><path fill="#f2f6f8" stroke="#f2f6f8" d="M779.3 66.2L788.9 30.2L724.9 0Z"/><path fill="#fff" stroke="#fff" d="M677.5 600L720.9 600L664.2 574.8Z"/><path fill="#f6f9fa" stroke="#f6f9fa" d="M168.5 66.3L128.7 93.3L152.1 106.3Z"/><path fill="#f4f7f9" stroke="#f4f7f9" d="M61.4 207.6L113.1 229.8L125.7 203.6Z"/><path fill="#eaf0f3" stroke="#eaf0f3" d="M107.7 36.2L128.7 93.3L168.5 66.3Z"/><path fill="#f4f7f9" stroke="#f4f7f9" d="M838.6 35.2L779.3 66.2L814.3 122.3Z"/><path fill="#fbfcfd" stroke="#fbfcfd" d="M788.9 30.2L768.3 0L724.9 0Z"/><path fill="#fbfcfd" stroke="#fbfcfd" d="M215.5 0L161.1 34.2L213.5 42.2Z"/><path fill="#f6f9fa" stroke="#f6f9fa" d="M73.4 259.9L115.7 268.9L113.1 229.8Z"/><path fill="#fbfcfd" stroke="#fbfcfd" d="M93.7 304.1L77.4 331.1L107.1 305.1Z"/><path fill="#f8fafb" stroke="#f8fafb" d="M61.4 207.6L125.7 203.6L59.7 151.5Z"/><path fill="#eef3f5" stroke="#eef3f5" d="M817.3 541.8L757.9 543.7L812.6 600Z"/><path fill="#f0f4f7" stroke="#f0f4f7" d="M817.3 541.8L818.3 508.7L757.9 543.7Z"/><path fill="#fdfdfe" stroke="#fdfdfe" d="M828.6 435.5L873.6 394.2L836.3 377.4Z"/><path fill="#f0f4f7" stroke="#f0f4f7" d="M191.5 600L221.8 557.8L182.1 600Z"/><path fill="#fdfdfe" stroke="#fdfdfe" d="M221.8 557.8L221.8 600L257.8 541.7Z"/><path fill="#f6f9fa" stroke="#f6f9fa" d="M900 401.4L873.6 394.2L828.6 435.5Z"/><path fill="#f0f4f7" stroke="#f0f4f7" d="M900 313.9L835.6 260.8L815.6 306.1Z"/><path fill="#f2f6f8" stroke="#f2f6f8" d="M900 313.9L818.3 343.1L900 350.1Z"/><path fill="#f2f6f8" stroke="#f2f6f8" d="M57.4 441.4L77.7 377.4L0 409.4Z"/><path fill="#fdfdfe" stroke="#fdfdfe" d="M77.4 331.1L77.7 377.4L120.1 351.2Z"/><path fill="#fbfcfd" stroke="#fbfcfd" d="M182.1 600L221.8 557.8L177.1 499.7Z"/><path fill="#eaf0f3" stroke="#eaf0f3" d="M900 350.1L818.3 343.1L854.6 375.4Z"/><path fill="#fff" stroke="#fff" d="M59.7 151.5L145.1 162.6L132.1 127.5Z"/><path fill="#fbfcfd" stroke="#fbfcfd" d="M0 297.1L30.4 348.2L77.4 331.1Z"/><path fill="#f0f4f7" stroke="#f0f4f7" d="M59.7 151.5L132.1 127.5L59.4 126.5Z"/><path fill="#f6f9fa" stroke="#f6f9fa" d="M812.6 600L757.9 543.7L738.5 574.8Z"/><path fill="#f2f6f8" stroke="#f2f6f8" d="M900 485.7L900 401.4L828.6 435.5Z"/><path fill="#f4f7f9" stroke="#f4f7f9" d="M900 355.2L854.6 375.4L873.6 394.2Z"/><path fill="#ecf1f4" stroke="#ecf1f4" d="M900 355.2L900 350.1L854.6 375.4Z"/><path fill="#eef3f5" stroke="#eef3f5" d="M900 401.4L900 355.2L873.6 394.2Z"/><path fill="#f6f9fa" stroke="#f6f9fa" d="M889.6 255.9L900 209.8L835.6 260.8Z"/><path fill="#f6f9fa" stroke="#f6f9fa" d="M875.6 55.3L838.6 35.2L814.3 122.3Z"/><path fill="#ecf1f4" stroke="#ecf1f4" d="M900 313.9L900 209.8L889.6 255.9Z"/><path fill="#f4f7f9" stroke="#f4f7f9" d="M182.1 600L177.1 499.7L110.1 564.8Z"/><path fill="#f4f7f9" stroke="#f4f7f9" d="M215.5 0L150.1 0L161.1 34.2Z"/><path fill="#fdfdfe" stroke="#fdfdfe" d="M161.1 34.2L107.7 36.2L168.5 66.3Z"/><path fill="#f6f9fa" stroke="#f6f9fa" d="M101.7 504.7L163.5 440.4L115.1 429.5Z"/><path fill="#f4f7f9" stroke="#f4f7f9" d="M875.6 55.3L814.3 122.3L847.6 140.5Z"/><path fill="#eaf0f3" stroke="#eaf0f3" d="M788.9 30.2L851.6 0L768.3 0Z"/><path fill="#f0f4f7" stroke="#f0f4f7" d="M900 209.8L900 164.5L845.6 150.6Z"/><path fill="#f0f4f7" stroke="#f0f4f7" d="M879.6 513.7L828.6 435.5L818.3 508.7Z"/><path fill="#fdfdfe" stroke="#fdfdfe" d="M900 164.5L900 162.6L845.6 150.6Z"/><path fill="#f6f9fa" stroke="#f6f9fa" d="M71.7 467.5L101.7 504.7L115.1 429.5Z"/><path fill="#fdfdfe" stroke="#fdfdfe" d="M59.4 126.5L132.1 127.5L128.7 93.3Z"/><path fill="#f2f6f8" stroke="#f2f6f8" d="M150.1 0L107.7 36.2L161.1 34.2Z"/><path fill="#f2f6f8" stroke="#f2f6f8" d="M57.4 441.4L71.7 467.5L115.1 429.5Z"/><path fill="#f8fafb" stroke="#f8fafb" d="M57.4 441.4L115.1 429.5L77.7 377.4Z"/><path fill="#f4f7f9" stroke="#f4f7f9" d="M41.4 90.3L59.4 126.5L128.7 93.3Z"/><path fill="#f0f4f7" stroke="#f0f4f7" d="M30.4 348.2L77.7 377.4L77.4 331.1Z"/><path fill="#f4f7f9" stroke="#f4f7f9" d="M77.4 331.1L73.4 259.9L0 297.1Z"/><path fill="#eaf0f3" stroke="#eaf0f3" d="M73.4 259.9L61.4 207.6L12.4 237.8Z"/><path fill="#f6f9fa" stroke="#f6f9fa" d="M900 162.6L900 115.3L847.6 140.5Z"/><path fill="#f2f6f8" stroke="#f2f6f8" d="M12.4 237.8L61.4 207.6L0 209.6Z"/><path fill="#eef3f5" stroke="#eef3f5" d="M900 115.3L875.6 55.3L847.6 140.5Z"/><path fill="#f0f4f7" stroke="#f0f4f7" d="M720.9 600L812.6 600L738.5 574.8Z"/><path fill="#f0f4f7" stroke="#f0f4f7" d="M856.6 551.8L879.6 513.7L818.3 508.7Z"/><path fill="#f4f7f9" stroke="#f4f7f9" d="M856.6 551.8L818.3 508.7L817.3 541.8Z"/><path fill="#ecf1f4" stroke="#ecf1f4" d="M824.3 600L856.6 551.8L817.3 541.8Z"/><path fill="#fff" stroke="#fff" d="M110.1 564.8L101.7 504.7L52.4 533.7Z"/><path fill="#fbfcfd" stroke="#fbfcfd" d="M90.7 587.8L110.1 564.8L52.4 533.7Z"/><path fill="#eef3f5" stroke="#eef3f5" d="M101.7 504.7L110.1 564.8L177.1 499.7Z"/><path fill="#fbfcfd" stroke="#fbfcfd" d="M879.6 513.7L900 485.7L828.6 435.5Z"/><path fill="#f8fafb" stroke="#f8fafb" d="M900 486.5L900 485.7L879.6 513.7Z"/><path fill="#ecf1f4" stroke="#ecf1f4" d="M900 570.8L900 486.5L879.6 513.7Z"/><path fill="#fdfdfe" stroke="#fdfdfe" d="M875.6 55.3L851.6 0L838.6 35.2Z"/><path fill="#eef3f5" stroke="#eef3f5" d="M838.6 35.2L851.6 0L788.9 30.2Z"/><path fill="#f8fafb" stroke="#f8fafb" d="M812.6 600L824.3 600L817.3 541.8Z"/><path fill="#eaf0f3" stroke="#eaf0f3" d="M0 209.6L61.4 207.6L0 189.8Z"/><path fill="#f8fafb" stroke="#f8fafb" d="M107.7 36.2L41.4 90.3L128.7 93.3Z"/><path fill="#f2f6f8" stroke="#f2f6f8" d="M0 189.8L61.4 207.6L59.7 151.5Z"/><path fill="#f0f4f7" stroke="#f0f4f7" d="M66.4 10.2L41.4 90.3L107.7 36.2Z"/><path fill="#f0f4f7" stroke="#f0f4f7" d="M90.7 587.8L120.7 600L110.1 564.8Z"/><path fill="#fdfdfe" stroke="#fdfdfe" d="M110.1 564.8L120.7 600L182.1 600Z"/><path fill="#ecf1f4" stroke="#ecf1f4" d="M12.4 237.8L0 287.9L73.4 259.9Z"/><path fill="#fff" stroke="#fff" d="M30.4 348.2L0 376.2L77.7 377.4Z"/><path fill="#f2f6f8" stroke="#f2f6f8" d="M0 209.6L0 287.9L12.4 237.8Z"/><path fill="#f0f4f7" stroke="#f0f4f7" d="M0 287.9L0 297.1L73.4 259.9Z"/><path fill="#ecf1f4" stroke="#ecf1f4" d="M0 189.8L59.7 151.5L0 128.3Z"/><path fill="#f6f9fa" stroke="#f6f9fa" d="M900 115.3L900 37.2L875.6 55.3Z"/><path fill="#f8fafb" stroke="#f8fafb" d="M875.6 55.3L900 37.2L851.6 0Z"/><path fill="#f8fafb" stroke="#f8fafb" d="M0 128.3L59.7 151.5L59.4 126.5Z"/><path fill="#fff" stroke="#fff" d="M0 297.1L0 376.2L30.4 348.2Z"/><path fill="#f0f4f7" stroke="#f0f4f7" d="M52.4 533.7L101.7 504.7L71.7 467.5Z"/><path fill="#f4f7f9" stroke="#f4f7f9" d="M52.4 533.7L71.7 467.5L26.4 489.5Z"/><path fill="#fff" stroke="#fff" d="M68.4 0L66.4 10.2L107.7 36.2Z"/><path fill="#f6f9fa" stroke="#f6f9fa" d="M0 125.5L0 128.3L59.4 126.5Z"/><path fill="#f0f4f7" stroke="#f0f4f7" d="M26.4 489.5L71.7 467.5L57.4 441.4Z"/><path fill="#ecf1f4" stroke="#ecf1f4" d="M0 376.2L0 409.4L77.7 377.4Z"/><path fill="#f6f9fa" stroke="#f6f9fa" d="M0 467.5L26.4 489.5L57.4 441.4Z"/><path fill="#ecf1f4" stroke="#ecf1f4" d="M150.1 0L68.4 0L107.7 36.2Z"/><path fill="#ecf1f4" stroke="#ecf1f4" d="M66.4 10.2L0 29.2L41.4 90.3Z"/><path fill="#f0f4f7" stroke="#f0f4f7" d="M68.4 0L62.7 0L66.4 10.2Z"/><path fill="#f2f6f8" stroke="#f2f6f8" d="M0 125.5L59.4 126.5L41.4 90.3Z"/><path fill="#eaf0f3" stroke="#eaf0f3" d="M0 29.2L0 125.5L41.4 90.3Z"/><path fill="#fff" stroke="#fff" d="M900 37.2L900 0L851.6 0Z"/><path fill="#f8fafb" stroke="#f8fafb" d="M900 600L900 570.8L856.6 551.8Z"/><path fill="#eef3f5" stroke="#eef3f5" d="M856.6 551.8L900 570.8L879.6 513.7Z"/><path fill="#f8fafb" stroke="#f8fafb" d="M0 409.4L0 467.5L57.4 441.4Z"/><path fill="#f6f9fa" stroke="#f6f9fa" d="M26.4 489.5L0 527.8L52.4 533.7Z"/><path fill="#f8fafb" stroke="#f8fafb" d="M52.4 533.7L67.4 589.8L90.7 587.8Z"/><path fill="#ecf1f4" stroke="#ecf1f4" d="M17.4 600L67.4 589.8L52.4 533.7Z"/><path fill="#ecf1f4" stroke="#ecf1f4" d="M90.7 587.8L67.4 589.8L120.7 600Z"/><path fill="#f4f7f9" stroke="#f4f7f9" d="M0 467.5L0 499.7L26.4 489.5Z"/><path fill="#fbfcfd" stroke="#fbfcfd" d="M824.3 600L900 600L856.6 551.8Z"/><path fill="#eef3f5" stroke="#eef3f5" d="M0 499.7L0 527.8L26.4 489.5Z"/><path fill="#eef3f5" stroke="#eef3f5" d="M62.7 0L0 29.2L66.4 10.2Z"/><path fill="#fbfcfd" stroke="#fbfcfd" d="M62.7 0L0 0L0 29.2Z"/><path fill="#eef3f5" stroke="#eef3f5" d="M0 527.8L17.4 600L52.4 533.7Z"/><path fill="#f6f9fa" stroke="#f6f9fa" d="M67.4 589.8L17.4 600L120.7 600Z"/><path fill="#f8fafb" stroke="#f8fafb" d="M0 527.8L0 600L17.4 600Z"/></g></svg>