    <svg width="24" height="24" xmlns="http://www.w3.org/2000/svg">
        <path d="M12 0a12.01 12.01 0 0 0 0 24c6.61 0 12-5.39 12-12 0-6.62-5.39-12-12-12ZM5.9 16.4a14.28 14.28 0 0 1 11.13 1.13c.13.07.25.3.3.58.05.28.03.57-.05.71a.61.61 0 0 1-.84.24 13.1 13.1 0 0 0-10.16-1.03.61.61 0 0 1-.77-.4c-.11-.35.11-1.13.4-1.23Zm-.52-4.42a18.16 18.16 0 0 1 13.07 1.4.73.73 0 0 1 .4.72c0 .1-.03.2-.08.29-.22.44-.49.74-.66.74a.77.77 0 0 1-.35-.09 16.33 16.33 0 0 0-11.98-1.27.75.75 0 0 1-.92-.52c-.11-.42.14-1.16.52-1.27ZM5.25 9.1a.88.88 0 0 1-1.07-.64c-.13-.5.19-1.08.64-1.2 1.74-.42 3.53-.64 5.32-.64 3.46 0 6.76.77 9.83 2.3a.89.89 0 0 1 .4 1.2c-.14.28-.45.6-.8.6a.92.92 0 0 1-.38-.1A20.03 20.03 0 0 0 5.25 9.1Z" fill="#000"/>
    </svg>